<?xml version="1.0" encoding="UTF-8" standalone="no"?>
<!DOCTYPE svg PUBLIC "-//W3C//DTD SVG 1.1//EN"
 "http://www.w3.org/Graphics/SVG/1.1/DTD/svg11.dtd">
<!-- Generated by graphviz version 2.38.0 (20140413.2041)
 -->
<!-- Title: models_diagram Pages: 1 -->
<svg width="883pt" height="957pt"
 viewBox="0.00 0.00 883.00 957.00" xmlns="http://www.w3.org/2000/svg" xmlns:xlink="http://www.w3.org/1999/xlink">
<g id="graph0" class="graph" transform="scale(1 1) rotate(0) translate(4 953)">
<title>models_diagram</title>
<polygon fill="none" stroke="none" points="-4,4 -4,-953 879,-953 879,4 -4,4"/>
<!-- Vendor -->
<g id="node1" class="node"><title>Vendor</title>
<path fill="none" stroke="black" d="M12,-572C12,-572 119,-572 119,-572 125,-572 131,-578 131,-584 131,-584 131,-651 131,-651 131,-657 125,-663 119,-663 119,-663 12,-663 12,-663 6,-663 0,-657 0,-651 0,-651 0,-584 0,-584 0,-578 6,-572 12,-572"/>
<text text-anchor="middle" x="65.5" y="-647.8" font-family="Times,serif" font-size="14.00">Vendor</text>
<polyline fill="none" stroke="black" points="0,-640 131,-640 "/>
<text text-anchor="start" x="8" y="-624.8" font-family="Times,serif" font-size="14.00">id :INTEGER</text>
<text text-anchor="start" x="8" y="-609.8" font-family="Times,serif" font-size="14.00">name :varchar</text>
<text text-anchor="start" x="8" y="-594.8" font-family="Times,serif" font-size="14.00">created_at :datetime</text>
<text text-anchor="start" x="8" y="-579.8" font-family="Times,serif" font-size="14.00">updated_at :datetime</text>
</g>
<!-- Appointment -->
<g id="node2" class="node"><title>Appointment</title>
<path fill="none" stroke="black" d="M106,-376.5C106,-376.5 213,-376.5 213,-376.5 219,-376.5 225,-382.5 225,-388.5 225,-388.5 225,-515.5 225,-515.5 225,-521.5 219,-527.5 213,-527.5 213,-527.5 106,-527.5 106,-527.5 100,-527.5 94,-521.5 94,-515.5 94,-515.5 94,-388.5 94,-388.5 94,-382.5 100,-376.5 106,-376.5"/>
<text text-anchor="middle" x="159.5" y="-512.3" font-family="Times,serif" font-size="14.00">Appointment</text>
<polyline fill="none" stroke="black" points="94,-504.5 225,-504.5 "/>
<text text-anchor="start" x="102" y="-489.3" font-family="Times,serif" font-size="14.00">id :INTEGER</text>
<text text-anchor="start" x="102" y="-474.3" font-family="Times,serif" font-size="14.00">datetime :datetime</text>
<text text-anchor="start" x="102" y="-459.3" font-family="Times,serif" font-size="14.00">vendor_id :integer</text>
<text text-anchor="start" x="102" y="-444.3" font-family="Times,serif" font-size="14.00">created_at :datetime</text>
<text text-anchor="start" x="102" y="-429.3" font-family="Times,serif" font-size="14.00">updated_at :datetime</text>
<text text-anchor="start" x="102" y="-414.3" font-family="Times,serif" font-size="14.00">name :varchar</text>
<text text-anchor="start" x="102" y="-399.3" font-family="Times,serif" font-size="14.00">dock_id :integer</text>
<text text-anchor="start" x="102" y="-384.3" font-family="Times,serif" font-size="14.00">timeslot_id :integer</text>
</g>
<!-- Vendor&#45;&gt;Appointment -->
<g id="edge1" class="edge"><title>Vendor&#45;&gt;Appointment</title>
<path fill="none" stroke="#e2fe8f" d="M95.3047,-564.659C100.464,-555.686 105.943,-546.155 111.442,-536.59"/>
<ellipse fill="none" stroke="#e2fe8f" cx="93.1796" cy="-568.355" rx="4.00002" ry="4.00002"/>
<polygon fill="#e2fe8f" stroke="#e2fe8f" points="111.505,-536.481 120.39,-530.055 113.997,-532.147 116.489,-527.812 116.489,-527.812 116.489,-527.812 113.997,-532.147 112.588,-525.569 111.505,-536.481 111.505,-536.481"/>
</g>
<!-- Shipment -->
<g id="node11" class="node"><title>Shipment</title>
<path fill="none" stroke="black" d="M147.5,-0.5C147.5,-0.5 273.5,-0.5 273.5,-0.5 279.5,-0.5 285.5,-6.5 285.5,-12.5 285.5,-12.5 285.5,-94.5 285.5,-94.5 285.5,-100.5 279.5,-106.5 273.5,-106.5 273.5,-106.5 147.5,-106.5 147.5,-106.5 141.5,-106.5 135.5,-100.5 135.5,-94.5 135.5,-94.5 135.5,-12.5 135.5,-12.5 135.5,-6.5 141.5,-0.5 147.5,-0.5"/>
<text text-anchor="middle" x="210.5" y="-91.3" font-family="Times,serif" font-size="14.00">Shipment</text>
<polyline fill="none" stroke="black" points="135.5,-83.5 285.5,-83.5 "/>
<text text-anchor="start" x="143.5" y="-68.3" font-family="Times,serif" font-size="14.00">id :INTEGER</text>
<text text-anchor="start" x="143.5" y="-53.3" font-family="Times,serif" font-size="14.00">dock_worker_id :integer</text>
<text text-anchor="start" x="143.5" y="-38.3" font-family="Times,serif" font-size="14.00">appointment_id :integer</text>
<text text-anchor="start" x="143.5" y="-23.3" font-family="Times,serif" font-size="14.00">created_at :datetime</text>
<text text-anchor="start" x="143.5" y="-8.3" font-family="Times,serif" font-size="14.00">updated_at :datetime</text>
</g>
<!-- Appointment&#45;&gt;Shipment -->
<g id="edge2" class="edge"><title>Appointment&#45;&gt;Shipment</title>
<path fill="none" stroke="#cca029" d="M157.694,-368.169C157.927,-305.657 161.675,-218.116 177.5,-143 179.362,-134.162 181.95,-125.031 184.866,-116.141"/>
<ellipse fill="none" stroke="#cca029" cx="157.688" cy="-372.435" rx="4" ry="4"/>
<polygon fill="#cca029" stroke="#cca029" points="184.89,-116.072 192.396,-108.078 186.515,-111.344 188.14,-106.615 188.14,-106.615 188.14,-106.615 186.515,-111.344 183.884,-105.153 184.89,-116.072 184.89,-116.072"/>
</g>
<!-- DockWorker -->
<g id="node12" class="node"><title>DockWorker</title>
<path fill="none" stroke="black" d="M199,-143.5C199,-143.5 324,-143.5 324,-143.5 330,-143.5 336,-149.5 336,-155.5 336,-155.5 336,-327.5 336,-327.5 336,-333.5 330,-339.5 324,-339.5 324,-339.5 199,-339.5 199,-339.5 193,-339.5 187,-333.5 187,-327.5 187,-327.5 187,-155.5 187,-155.5 187,-149.5 193,-143.5 199,-143.5"/>
<text text-anchor="middle" x="261.5" y="-324.3" font-family="Times,serif" font-size="14.00">DockWorker</text>
<polyline fill="none" stroke="black" points="187,-316.5 336,-316.5 "/>
<text text-anchor="start" x="195" y="-301.3" font-family="Times,serif" font-size="14.00">id :INTEGER</text>
<text text-anchor="start" x="195" y="-286.3" font-family="Times,serif" font-size="14.00">last_name :varchar</text>
<text text-anchor="start" x="195" y="-271.3" font-family="Times,serif" font-size="14.00">first_name :varchar</text>
<text text-anchor="start" x="195" y="-256.3" font-family="Times,serif" font-size="14.00">address :varchar</text>
<text text-anchor="start" x="195" y="-241.3" font-family="Times,serif" font-size="14.00">state_id :integer</text>
<text text-anchor="start" x="195" y="-226.3" font-family="Times,serif" font-size="14.00">zipcode :varchar</text>
<text text-anchor="start" x="195" y="-211.3" font-family="Times,serif" font-size="14.00">pay_rate :float</text>
<text text-anchor="start" x="195" y="-196.3" font-family="Times,serif" font-size="14.00">archived :boolean</text>
<text text-anchor="start" x="195" y="-181.3" font-family="Times,serif" font-size="14.00">created_at :datetime</text>
<text text-anchor="start" x="195" y="-166.3" font-family="Times,serif" font-size="14.00">updated_at :datetime</text>
<text text-anchor="start" x="195" y="-151.3" font-family="Times,serif" font-size="14.00">last_payment_date :date</text>
</g>
<!-- Appointment&#45;&gt;DockWorker -->
<g id="edge3" class="edge"><title>Appointment&#45;&gt;DockWorker</title>
<path fill="none" stroke="#1397dd" d="M200.455,-367.282C203.452,-361.157 206.497,-354.933 209.546,-348.699"/>
<polygon fill="#1397dd" stroke="#1397dd" points="200.431,-367.333 191.994,-374.338 198.233,-371.824 196.036,-376.316 196.036,-376.316 196.036,-376.316 198.233,-371.824 200.078,-378.293 200.431,-367.333 200.431,-367.333"/>
<polygon fill="#1397dd" stroke="#1397dd" points="209.618,-348.553 218.054,-341.548 211.815,-344.062 214.012,-339.571 214.012,-339.571 214.012,-339.571 211.815,-344.062 209.97,-337.593 209.618,-348.553 209.618,-348.553"/>
</g>
<!-- ApplicationRecord -->
<g id="node3" class="node"><title>ApplicationRecord</title>
<ellipse fill="none" stroke="black" cx="414.5" cy="-828" rx="77.1866" ry="18"/>
<text text-anchor="middle" x="414.5" y="-824.3" font-family="Times,serif" font-size="14.00">ApplicationRecord</text>
</g>
<!-- DockSchedule -->
<g id="node4" class="node"><title>DockSchedule</title>
<path fill="none" stroke="black" d="M200,-564.5C200,-564.5 307,-564.5 307,-564.5 313,-564.5 319,-570.5 319,-576.5 319,-576.5 319,-658.5 319,-658.5 319,-664.5 313,-670.5 307,-670.5 307,-670.5 200,-670.5 200,-670.5 194,-670.5 188,-664.5 188,-658.5 188,-658.5 188,-576.5 188,-576.5 188,-570.5 194,-564.5 200,-564.5"/>
<text text-anchor="middle" x="253.5" y="-655.3" font-family="Times,serif" font-size="14.00">DockSchedule</text>
<polyline fill="none" stroke="black" points="188,-647.5 319,-647.5 "/>
<text text-anchor="start" x="196" y="-632.3" font-family="Times,serif" font-size="14.00">id :INTEGER</text>
<text text-anchor="start" x="196" y="-617.3" font-family="Times,serif" font-size="14.00">dock_id :integer</text>
<text text-anchor="start" x="196" y="-602.3" font-family="Times,serif" font-size="14.00">timeslot_id :integer</text>
<text text-anchor="start" x="196" y="-587.3" font-family="Times,serif" font-size="14.00">created_at :datetime</text>
<text text-anchor="start" x="196" y="-572.3" font-family="Times,serif" font-size="14.00">updated_at :datetime</text>
</g>
<!-- State -->
<g id="node5" class="node"><title>State</title>
<path fill="none" stroke="black" d="M294,-406.5C294,-406.5 401,-406.5 401,-406.5 407,-406.5 413,-412.5 413,-418.5 413,-418.5 413,-485.5 413,-485.5 413,-491.5 407,-497.5 401,-497.5 401,-497.5 294,-497.5 294,-497.5 288,-497.5 282,-491.5 282,-485.5 282,-485.5 282,-418.5 282,-418.5 282,-412.5 288,-406.5 294,-406.5"/>
<text text-anchor="middle" x="347.5" y="-482.3" font-family="Times,serif" font-size="14.00">State</text>
<polyline fill="none" stroke="black" points="282,-474.5 413,-474.5 "/>
<text text-anchor="start" x="290" y="-459.3" font-family="Times,serif" font-size="14.00">id :INTEGER</text>
<text text-anchor="start" x="290" y="-444.3" font-family="Times,serif" font-size="14.00">name :varchar</text>
<text text-anchor="start" x="290" y="-429.3" font-family="Times,serif" font-size="14.00">created_at :datetime</text>
<text text-anchor="start" x="290" y="-414.3" font-family="Times,serif" font-size="14.00">updated_at :datetime</text>
</g>
<!-- State&#45;&gt;DockWorker -->
<g id="edge4" class="edge"><title>State&#45;&gt;DockWorker</title>
<path fill="none" stroke="#982014" d="M325.957,-398.771C319.721,-383.653 312.677,-366.573 305.592,-349.398"/>
<ellipse fill="none" stroke="#982014" cx="327.526" cy="-402.574" rx="4.00002" ry="4.00002"/>
<polygon fill="#982014" stroke="#982014" points="305.47,-349.102 305.817,-338.142 303.564,-344.48 301.657,-339.857 301.657,-339.857 301.657,-339.857 303.564,-344.48 297.497,-341.573 305.47,-349.102 305.47,-349.102"/>
</g>
<!-- Dock -->
<g id="node6" class="node"><title>Dock</title>
<path fill="none" stroke="black" d="M200,-782.5C200,-782.5 307,-782.5 307,-782.5 313,-782.5 319,-788.5 319,-794.5 319,-794.5 319,-861.5 319,-861.5 319,-867.5 313,-873.5 307,-873.5 307,-873.5 200,-873.5 200,-873.5 194,-873.5 188,-867.5 188,-861.5 188,-861.5 188,-794.5 188,-794.5 188,-788.5 194,-782.5 200,-782.5"/>
<text text-anchor="middle" x="253.5" y="-858.3" font-family="Times,serif" font-size="14.00">Dock</text>
<polyline fill="none" stroke="black" points="188,-850.5 319,-850.5 "/>
<text text-anchor="start" x="196" y="-835.3" font-family="Times,serif" font-size="14.00">id :INTEGER</text>
<text text-anchor="start" x="196" y="-820.3" font-family="Times,serif" font-size="14.00">name :varchar</text>
<text text-anchor="start" x="196" y="-805.3" font-family="Times,serif" font-size="14.00">created_at :datetime</text>
<text text-anchor="start" x="196" y="-790.3" font-family="Times,serif" font-size="14.00">updated_at :datetime</text>
</g>
<!-- Dock&#45;&gt;Appointment -->
<g id="edge7" class="edge"><title>Dock&#45;&gt;Appointment</title>
<path fill="none" stroke="#bc4c1b" d="M222.626,-774.982C206.653,-745.498 188.46,-707.336 178.5,-671 166.718,-628.019 161.745,-578.653 159.814,-537.779"/>
<ellipse fill="none" stroke="#bc4c1b" cx="224.709" cy="-778.778" rx="4.00002" ry="4.00002"/>
<polygon fill="#bc4c1b" stroke="#bc4c1b" points="159.805,-537.571 163.882,-527.391 159.595,-532.575 159.386,-527.58 159.386,-527.58 159.386,-527.58 159.595,-532.575 154.89,-527.768 159.805,-537.571 159.805,-537.571"/>
</g>
<!-- Dock&#45;&gt;DockSchedule -->
<g id="edge5" class="edge"><title>Dock&#45;&gt;DockSchedule</title>
<path fill="none" stroke="#7b84c3" d="M253.5,-773.977C253.5,-745.585 253.5,-710.447 253.5,-680.763"/>
<ellipse fill="none" stroke="#7b84c3" cx="253.5" cy="-778.272" rx="4" ry="4"/>
<polygon fill="#7b84c3" stroke="#7b84c3" points="253.5,-680.511 258,-670.51 253.5,-675.511 253.5,-670.511 253.5,-670.511 253.5,-670.511 253.5,-675.511 249,-670.511 253.5,-680.511 253.5,-680.511"/>
</g>
<!-- Timeslot -->
<g id="node8" class="node"><title>Timeslot</title>
<path fill="none" stroke="black" d="M349,-564.5C349,-564.5 456,-564.5 456,-564.5 462,-564.5 468,-570.5 468,-576.5 468,-576.5 468,-658.5 468,-658.5 468,-664.5 462,-670.5 456,-670.5 456,-670.5 349,-670.5 349,-670.5 343,-670.5 337,-664.5 337,-658.5 337,-658.5 337,-576.5 337,-576.5 337,-570.5 343,-564.5 349,-564.5"/>
<text text-anchor="middle" x="402.5" y="-655.3" font-family="Times,serif" font-size="14.00">Timeslot</text>
<polyline fill="none" stroke="black" points="337,-647.5 468,-647.5 "/>
<text text-anchor="start" x="345" y="-632.3" font-family="Times,serif" font-size="14.00">id :INTEGER</text>
<text text-anchor="start" x="345" y="-617.3" font-family="Times,serif" font-size="14.00">created_at :datetime</text>
<text text-anchor="start" x="345" y="-602.3" font-family="Times,serif" font-size="14.00">updated_at :datetime</text>
<text text-anchor="start" x="345" y="-587.3" font-family="Times,serif" font-size="14.00">date :date</text>
<text text-anchor="start" x="345" y="-572.3" font-family="Times,serif" font-size="14.00">time :time</text>
</g>
<!-- Dock&#45;&gt;Timeslot -->
<g id="edge6" class="edge"><title>Dock&#45;&gt;Timeslot</title>
<path fill="none" stroke="#ca5c48" d="M284.538,-773.866C297.494,-752.637 313.097,-728.237 328.5,-707 335.298,-697.627 342.8,-687.974 350.34,-678.646"/>
<polygon fill="#ca5c48" stroke="#ca5c48" points="284.523,-773.891 275.492,-780.111 281.932,-778.167 279.341,-782.443 279.341,-782.443 279.341,-782.443 281.932,-778.167 283.19,-784.775 284.523,-773.891 284.523,-773.891"/>
<polygon fill="#ca5c48" stroke="#ca5c48" points="350.342,-678.643 360.154,-673.746 353.506,-674.771 356.669,-670.899 356.669,-670.899 356.669,-670.899 353.506,-674.771 353.184,-668.052 350.342,-678.643 350.342,-678.643"/>
</g>
<!-- User -->
<g id="node7" class="node"><title>User</title>
<path fill="none" stroke="black" d="M521.5,-707.5C521.5,-707.5 697.5,-707.5 697.5,-707.5 703.5,-707.5 709.5,-713.5 709.5,-719.5 709.5,-719.5 709.5,-936.5 709.5,-936.5 709.5,-942.5 703.5,-948.5 697.5,-948.5 697.5,-948.5 521.5,-948.5 521.5,-948.5 515.5,-948.5 509.5,-942.5 509.5,-936.5 509.5,-936.5 509.5,-719.5 509.5,-719.5 509.5,-713.5 515.5,-707.5 521.5,-707.5"/>
<text text-anchor="middle" x="609.5" y="-933.3" font-family="Times,serif" font-size="14.00">User</text>
<polyline fill="none" stroke="black" points="509.5,-925.5 709.5,-925.5 "/>
<text text-anchor="start" x="517.5" y="-910.3" font-family="Times,serif" font-size="14.00">id :INTEGER</text>
<text text-anchor="start" x="517.5" y="-895.3" font-family="Times,serif" font-size="14.00">name :varchar</text>
<text text-anchor="start" x="517.5" y="-880.3" font-family="Times,serif" font-size="14.00">email :varchar</text>
<text text-anchor="start" x="517.5" y="-865.3" font-family="Times,serif" font-size="14.00">encrypted_password :varchar</text>
<text text-anchor="start" x="517.5" y="-850.3" font-family="Times,serif" font-size="14.00">reset_password_token :varchar</text>
<text text-anchor="start" x="517.5" y="-835.3" font-family="Times,serif" font-size="14.00">reset_password_sent_at :datetime</text>
<text text-anchor="start" x="517.5" y="-820.3" font-family="Times,serif" font-size="14.00">remember_created_at :datetime</text>
<text text-anchor="start" x="517.5" y="-805.3" font-family="Times,serif" font-size="14.00">sign_in_count :integer</text>
<text text-anchor="start" x="517.5" y="-790.3" font-family="Times,serif" font-size="14.00">current_sign_in_at :datetime</text>
<text text-anchor="start" x="517.5" y="-775.3" font-family="Times,serif" font-size="14.00">last_sign_in_at :datetime</text>
<text text-anchor="start" x="517.5" y="-760.3" font-family="Times,serif" font-size="14.00">current_sign_in_ip :varchar</text>
<text text-anchor="start" x="517.5" y="-745.3" font-family="Times,serif" font-size="14.00">last_sign_in_ip :varchar</text>
<text text-anchor="start" x="517.5" y="-730.3" font-family="Times,serif" font-size="14.00">created_at :datetime</text>
<text text-anchor="start" x="517.5" y="-715.3" font-family="Times,serif" font-size="14.00">updated_at :datetime</text>
</g>
<!-- Timeslot&#45;&gt;Appointment -->
<g id="edge10" class="edge"><title>Timeslot&#45;&gt;Appointment</title>
<path fill="none" stroke="#3116ee" d="M329.807,-565.274C329.036,-564.844 328.267,-564.419 327.5,-564 290.406,-543.758 275.06,-550.83 239.5,-528 237.548,-526.746 235.6,-525.442 233.66,-524.095"/>
<ellipse fill="none" stroke="#3116ee" cx="333.297" cy="-567.293" rx="4.00002" ry="4.00002"/>
<polygon fill="#3116ee" stroke="#3116ee" points="233.301,-523.833 227.878,-514.303 229.263,-520.885 225.224,-517.937 225.224,-517.937 225.224,-517.937 229.263,-520.885 222.571,-521.572 233.301,-523.833 233.301,-523.833"/>
</g>
<!-- WorkerSchedule -->
<g id="node10" class="node"><title>WorkerSchedule</title>
<path fill="none" stroke="black" d="M346.5,-0.5C346.5,-0.5 472.5,-0.5 472.5,-0.5 478.5,-0.5 484.5,-6.5 484.5,-12.5 484.5,-12.5 484.5,-94.5 484.5,-94.5 484.5,-100.5 478.5,-106.5 472.5,-106.5 472.5,-106.5 346.5,-106.5 346.5,-106.5 340.5,-106.5 334.5,-100.5 334.5,-94.5 334.5,-94.5 334.5,-12.5 334.5,-12.5 334.5,-6.5 340.5,-0.5 346.5,-0.5"/>
<text text-anchor="middle" x="409.5" y="-91.3" font-family="Times,serif" font-size="14.00">WorkerSchedule</text>
<polyline fill="none" stroke="black" points="334.5,-83.5 484.5,-83.5 "/>
<text text-anchor="start" x="342.5" y="-68.3" font-family="Times,serif" font-size="14.00">id :INTEGER</text>
<text text-anchor="start" x="342.5" y="-53.3" font-family="Times,serif" font-size="14.00">dock_worker_id :integer</text>
<text text-anchor="start" x="342.5" y="-38.3" font-family="Times,serif" font-size="14.00">timeslot_id :integer</text>
<text text-anchor="start" x="342.5" y="-23.3" font-family="Times,serif" font-size="14.00">created_at :datetime</text>
<text text-anchor="start" x="342.5" y="-8.3" font-family="Times,serif" font-size="14.00">updated_at :datetime</text>
</g>
<!-- Timeslot&#45;&gt;WorkerSchedule -->
<g id="edge8" class="edge"><title>Timeslot&#45;&gt;WorkerSchedule</title>
<path fill="none" stroke="#8e0db9" d="M417.165,-556.495C418.965,-547.014 420.515,-537.278 421.5,-528 437.085,-381.155 424.9,-207.33 416.236,-116.636"/>
<ellipse fill="none" stroke="#8e0db9" cx="416.379" cy="-560.46" rx="4.00001" ry="4.00001"/>
<polygon fill="#8e0db9" stroke="#8e0db9" points="416.221,-116.48 419.731,-106.091 415.737,-111.503 415.252,-106.527 415.252,-106.527 415.252,-106.527 415.737,-111.503 410.773,-106.963 416.221,-116.48 416.221,-116.48"/>
</g>
<!-- Timeslot&#45;&gt;DockWorker -->
<g id="edge9" class="edge"><title>Timeslot&#45;&gt;DockWorker</title>
<path fill="none" stroke="#6ab548" d="M328.353,-564.578C328.068,-564.385 327.784,-564.192 327.5,-564 303.308,-547.621 286.886,-553.428 272.5,-528 242.315,-474.648 238.709,-406.275 243.056,-349.816"/>
<polygon fill="#6ab548" stroke="#6ab548" points="328.467,-564.656 334.196,-574.007 332.599,-567.472 336.73,-570.288 336.73,-570.288 336.73,-570.288 332.599,-567.472 339.265,-566.57 328.467,-564.656 328.467,-564.656"/>
<polygon fill="#6ab548" stroke="#6ab548" points="243.062,-349.744 248.404,-340.167 243.491,-344.762 243.92,-339.781 243.92,-339.781 243.92,-339.781 243.491,-344.762 239.437,-339.394 243.062,-349.744 243.062,-349.744"/>
</g>
<!-- Reservation -->
<g id="node9" class="node"><title>Reservation</title>
<path fill="none" stroke="black" d="M740,-775C740,-775 863,-775 863,-775 869,-775 875,-781 875,-787 875,-787 875,-869 875,-869 875,-875 869,-881 863,-881 863,-881 740,-881 740,-881 734,-881 728,-875 728,-869 728,-869 728,-787 728,-787 728,-781 734,-775 740,-775"/>
<text text-anchor="middle" x="801.5" y="-865.8" font-family="Times,serif" font-size="14.00">Reservation</text>
<polyline fill="none" stroke="black" points="728,-858 875,-858 "/>
<text text-anchor="start" x="736" y="-842.8" font-family="Times,serif" font-size="14.00">id :INTEGER</text>
<text text-anchor="start" x="736" y="-827.8" font-family="Times,serif" font-size="14.00">appointment_id :integer</text>
<text text-anchor="start" x="736" y="-812.8" font-family="Times,serif" font-size="14.00">dock_id :integer</text>
<text text-anchor="start" x="736" y="-797.8" font-family="Times,serif" font-size="14.00">created_at :datetime</text>
<text text-anchor="start" x="736" y="-782.8" font-family="Times,serif" font-size="14.00">updated_at :datetime</text>
</g>
<!-- DockWorker&#45;&gt;WorkerSchedule -->
<g id="edge11" class="edge"><title>DockWorker&#45;&gt;WorkerSchedule</title>
<path fill="none" stroke="#4a1fbb" d="M341.264,-140.256C348.156,-131.595 354.98,-123.018 361.497,-114.829"/>
<ellipse fill="none" stroke="#4a1fbb" cx="338.641" cy="-143.553" rx="4.00002" ry="4.00002"/>
<polygon fill="#4a1fbb" stroke="#4a1fbb" points="361.675,-114.604 371.423,-109.581 364.788,-110.692 367.901,-106.779 367.901,-106.779 367.901,-106.779 364.788,-110.692 364.38,-103.977 361.675,-114.604 361.675,-114.604"/>
</g>
<!-- DockWorker&#45;&gt;Shipment -->
<g id="edge12" class="edge"><title>DockWorker&#45;&gt;Shipment</title>
<path fill="none" stroke="#a05f37" d="M232.685,-135.41C230.939,-129.041 229.214,-122.749 227.543,-116.657"/>
<ellipse fill="none" stroke="#a05f37" cx="233.822" cy="-139.557" rx="4.00001" ry="4.00001"/>
<polygon fill="#a05f37" stroke="#a05f37" points="227.433,-116.257 229.129,-105.423 226.111,-111.435 224.789,-106.613 224.789,-106.613 224.789,-106.613 226.111,-111.435 220.449,-107.803 227.433,-116.257 227.433,-116.257"/>
</g>
</g>
</svg>
