<?xml version="1.0" encoding="UTF-8" standalone="no"?>
<!DOCTYPE svg PUBLIC "-//W3C//DTD SVG 1.1//EN"
 "http://www.w3.org/Graphics/SVG/1.1/DTD/svg11.dtd">
<!-- Generated by graphviz version 2.38.0 (20140413.2041)
 -->
<!-- Title: controllers_diagram Pages: 1 -->
<svg width="717pt" height="616pt"
 viewBox="0.00 0.00 716.50 615.50" xmlns="http://www.w3.org/2000/svg" xmlns:xlink="http://www.w3.org/1999/xlink">
<g id="graph0" class="graph" transform="scale(1 1) rotate(0) translate(274 413.5)">
<title>controllers_diagram</title>
<polygon fill="none" stroke="none" points="-274,202 -274,-413.5 442.5,-413.5 442.5,202 -274,202"/>
<!-- _diagram_info -->
<g id="node1" class="node"><title>_diagram_info</title>
<text text-anchor="start" x="98" y="134.4" font-family="Times,serif" font-size="13.00">Controllers diagram</text>
<text text-anchor="start" x="98" y="148.4" font-family="Times,serif" font-size="13.00">Date: Apr 13 2017 &#45; 17:56</text>
<text text-anchor="start" x="98" y="162.4" font-family="Times,serif" font-size="13.00">Migration version: 20170413023926</text>
<text text-anchor="start" x="98" y="176.4" font-family="Times,serif" font-size="13.00">Generated by RailRoady 1.5.2</text>
<text text-anchor="start" x="98" y="190.4" font-family="Times,serif" font-size="13.00">http://railroady.prestonlee.com</text>
</g>
<!-- StatesController -->
<g id="node2" class="node"><title>StatesController</title>
<path fill="none" stroke="black" d="M-96,-180.5C-96,-180.5 -16,-180.5 -16,-180.5 -10,-180.5 -4,-186.5 -4,-192.5 -4,-192.5 -4,-381.5 -4,-381.5 -4,-387.5 -10,-393.5 -16,-393.5 -16,-393.5 -96,-393.5 -96,-393.5 -102,-393.5 -108,-387.5 -108,-381.5 -108,-381.5 -108,-192.5 -108,-192.5 -108,-186.5 -102,-180.5 -96,-180.5"/>
<text text-anchor="middle" x="-56" y="-378.3" font-family="Times,serif" font-size="14.00">StatesController</text>
<polyline fill="none" stroke="black" points="-108,-370.5 -4,-370.5 "/>
<text text-anchor="start" x="-100" y="-355.3" font-family="Times,serif" font-size="14.00">create</text>
<text text-anchor="start" x="-100" y="-340.3" font-family="Times,serif" font-size="14.00">destroy</text>
<text text-anchor="start" x="-100" y="-325.3" font-family="Times,serif" font-size="14.00">edit</text>
<text text-anchor="start" x="-100" y="-310.3" font-family="Times,serif" font-size="14.00">index</text>
<text text-anchor="start" x="-100" y="-295.3" font-family="Times,serif" font-size="14.00">new</text>
<text text-anchor="start" x="-100" y="-280.3" font-family="Times,serif" font-size="14.00">show</text>
<text text-anchor="start" x="-100" y="-265.3" font-family="Times,serif" font-size="14.00">update</text>
<polyline fill="none" stroke="black" points="-108,-257.5 -4,-257.5 "/>
<polyline fill="none" stroke="black" points="-108,-233.5 -4,-233.5 "/>
<text text-anchor="start" x="-100" y="-218.3" font-family="Times,serif" font-size="14.00">_layout</text>
<text text-anchor="start" x="-100" y="-203.3" font-family="Times,serif" font-size="14.00">set_state</text>
<text text-anchor="start" x="-100" y="-188.3" font-family="Times,serif" font-size="14.00">state_params</text>
</g>
<!-- AppointmentsController -->
<g id="node3" class="node"><title>AppointmentsController</title>
<path fill="none" stroke="black" d="M101.5,89C101.5,89 226.5,89 226.5,89 232.5,89 238.5,83 238.5,77 238.5,77 238.5,-127 238.5,-127 238.5,-133 232.5,-139 226.5,-139 226.5,-139 101.5,-139 101.5,-139 95.5,-139 89.5,-133 89.5,-127 89.5,-127 89.5,77 89.5,77 89.5,83 95.5,89 101.5,89"/>
<text text-anchor="middle" x="164" y="-123.8" font-family="Times,serif" font-size="14.00">AppointmentsController</text>
<polyline fill="none" stroke="black" points="89.5,-116 238.5,-116 "/>
<text text-anchor="start" x="97.5" y="-100.8" font-family="Times,serif" font-size="14.00">check</text>
<text text-anchor="start" x="97.5" y="-85.8" font-family="Times,serif" font-size="14.00">create</text>
<text text-anchor="start" x="97.5" y="-70.8" font-family="Times,serif" font-size="14.00">destroy</text>
<text text-anchor="start" x="97.5" y="-55.8" font-family="Times,serif" font-size="14.00">edit</text>
<text text-anchor="start" x="97.5" y="-40.8" font-family="Times,serif" font-size="14.00">index</text>
<text text-anchor="start" x="97.5" y="-25.8" font-family="Times,serif" font-size="14.00">new</text>
<text text-anchor="start" x="97.5" y="-10.8" font-family="Times,serif" font-size="14.00">show</text>
<text text-anchor="start" x="97.5" y="4.2" font-family="Times,serif" font-size="14.00">update</text>
<polyline fill="none" stroke="black" points="89.5,12 238.5,12 "/>
<polyline fill="none" stroke="black" points="89.5,36 238.5,36 "/>
<text text-anchor="start" x="97.5" y="51.2" font-family="Times,serif" font-size="14.00">_layout</text>
<text text-anchor="start" x="97.5" y="66.2" font-family="Times,serif" font-size="14.00">appointment_params</text>
<text text-anchor="start" x="97.5" y="81.2" font-family="Times,serif" font-size="14.00">set_appointment</text>
</g>
<!-- UsersController -->
<g id="node4" class="node"><title>UsersController</title>
<path fill="none" stroke="black" d="M-221.5,17.5C-221.5,17.5 -142.5,17.5 -142.5,17.5 -136.5,17.5 -130.5,11.5 -130.5,5.5 -130.5,5.5 -130.5,-123.5 -130.5,-123.5 -130.5,-129.5 -136.5,-135.5 -142.5,-135.5 -142.5,-135.5 -221.5,-135.5 -221.5,-135.5 -227.5,-135.5 -233.5,-129.5 -233.5,-123.5 -233.5,-123.5 -233.5,5.5 -233.5,5.5 -233.5,11.5 -227.5,17.5 -221.5,17.5"/>
<text text-anchor="middle" x="-182" y="-120.3" font-family="Times,serif" font-size="14.00">UsersController</text>
<polyline fill="none" stroke="black" points="-233.5,-112.5 -130.5,-112.5 "/>
<text text-anchor="start" x="-225.5" y="-97.3" font-family="Times,serif" font-size="14.00">destroy</text>
<text text-anchor="start" x="-225.5" y="-82.3" font-family="Times,serif" font-size="14.00">edit</text>
<text text-anchor="start" x="-225.5" y="-67.3" font-family="Times,serif" font-size="14.00">new</text>
<text text-anchor="start" x="-225.5" y="-52.3" font-family="Times,serif" font-size="14.00">show</text>
<text text-anchor="start" x="-225.5" y="-37.3" font-family="Times,serif" font-size="14.00">update</text>
<polyline fill="none" stroke="black" points="-233.5,-29.5 -130.5,-29.5 "/>
<polyline fill="none" stroke="black" points="-233.5,-5.5 -130.5,-5.5 "/>
<text text-anchor="start" x="-225.5" y="9.7" font-family="Times,serif" font-size="14.00">_layout</text>
</g>
<!-- VendorsController -->
<g id="node5" class="node"><title>VendorsController</title>
<path fill="none" stroke="black" d="M192,-180.5C192,-180.5 286,-180.5 286,-180.5 292,-180.5 298,-186.5 298,-192.5 298,-192.5 298,-381.5 298,-381.5 298,-387.5 292,-393.5 286,-393.5 286,-393.5 192,-393.5 192,-393.5 186,-393.5 180,-387.5 180,-381.5 180,-381.5 180,-192.5 180,-192.5 180,-186.5 186,-180.5 192,-180.5"/>
<text text-anchor="middle" x="239" y="-378.3" font-family="Times,serif" font-size="14.00">VendorsController</text>
<polyline fill="none" stroke="black" points="180,-370.5 298,-370.5 "/>
<text text-anchor="start" x="188" y="-355.3" font-family="Times,serif" font-size="14.00">create</text>
<text text-anchor="start" x="188" y="-340.3" font-family="Times,serif" font-size="14.00">destroy</text>
<text text-anchor="start" x="188" y="-325.3" font-family="Times,serif" font-size="14.00">edit</text>
<text text-anchor="start" x="188" y="-310.3" font-family="Times,serif" font-size="14.00">index</text>
<text text-anchor="start" x="188" y="-295.3" font-family="Times,serif" font-size="14.00">new</text>
<text text-anchor="start" x="188" y="-280.3" font-family="Times,serif" font-size="14.00">show</text>
<text text-anchor="start" x="188" y="-265.3" font-family="Times,serif" font-size="14.00">update</text>
<polyline fill="none" stroke="black" points="180,-257.5 298,-257.5 "/>
<polyline fill="none" stroke="black" points="180,-233.5 298,-233.5 "/>
<text text-anchor="start" x="188" y="-218.3" font-family="Times,serif" font-size="14.00">_layout</text>
<text text-anchor="start" x="188" y="-203.3" font-family="Times,serif" font-size="14.00">set_vendor</text>
<text text-anchor="start" x="188" y="-188.3" font-family="Times,serif" font-size="14.00">vendor_params</text>
</g>
<!-- ApplicationController -->
<g id="node6" class="node"><title>ApplicationController</title>
<path fill="none" stroke="black" d="M-258,143C-258,143 -146,143 -146,143 -140,143 -134,137 -134,131 -134,131 -134,61 -134,61 -134,55 -140,49 -146,49 -146,49 -258,49 -258,49 -264,49 -270,55 -270,61 -270,61 -270,131 -270,131 -270,137 -264,143 -258,143"/>
<text text-anchor="middle" x="-202" y="64.2" font-family="Times,serif" font-size="14.00">ApplicationController</text>
<polyline fill="none" stroke="black" points="-270,72 -134,72 "/>
<polyline fill="none" stroke="black" points="-270,96 -134,96 "/>
<polyline fill="none" stroke="black" points="-270,120 -134,120 "/>
<text text-anchor="start" x="-262" y="135.2" font-family="Times,serif" font-size="14.00">_layout</text>
</g>
<!-- DocksController -->
<g id="node7" class="node"><title>DocksController</title>
<path fill="none" stroke="black" d="M47.5,-181C47.5,-181 130.5,-181 130.5,-181 136.5,-181 142.5,-187 142.5,-193 142.5,-193 142.5,-397 142.5,-397 142.5,-403 136.5,-409 130.5,-409 130.5,-409 47.5,-409 47.5,-409 41.5,-409 35.5,-403 35.5,-397 35.5,-397 35.5,-193 35.5,-193 35.5,-187 41.5,-181 47.5,-181"/>
<text text-anchor="middle" x="89" y="-393.8" font-family="Times,serif" font-size="14.00">DocksController</text>
<polyline fill="none" stroke="black" points="35.5,-386 142.5,-386 "/>
<text text-anchor="start" x="43.5" y="-370.8" font-family="Times,serif" font-size="14.00">create</text>
<text text-anchor="start" x="43.5" y="-355.8" font-family="Times,serif" font-size="14.00">destroy</text>
<text text-anchor="start" x="43.5" y="-340.8" font-family="Times,serif" font-size="14.00">edit</text>
<text text-anchor="start" x="43.5" y="-325.8" font-family="Times,serif" font-size="14.00">index</text>
<text text-anchor="start" x="43.5" y="-310.8" font-family="Times,serif" font-size="14.00">new</text>
<text text-anchor="start" x="43.5" y="-295.8" font-family="Times,serif" font-size="14.00">report</text>
<text text-anchor="start" x="43.5" y="-280.8" font-family="Times,serif" font-size="14.00">show</text>
<text text-anchor="start" x="43.5" y="-265.8" font-family="Times,serif" font-size="14.00">update</text>
<polyline fill="none" stroke="black" points="35.5,-258 142.5,-258 "/>
<polyline fill="none" stroke="black" points="35.5,-234 142.5,-234 "/>
<text text-anchor="start" x="43.5" y="-218.8" font-family="Times,serif" font-size="14.00">_layout</text>
<text text-anchor="start" x="43.5" y="-203.8" font-family="Times,serif" font-size="14.00">dock_params</text>
<text text-anchor="start" x="43.5" y="-188.8" font-family="Times,serif" font-size="14.00">set_dock</text>
</g>
<!-- DockWorkersController -->
<g id="node8" class="node"><title>DockWorkersController</title>
<path fill="none" stroke="black" d="M-78.5,143C-78.5,143 46.5,143 46.5,143 52.5,143 58.5,137 58.5,131 58.5,131 58.5,-133 58.5,-133 58.5,-139 52.5,-145 46.5,-145 46.5,-145 -78.5,-145 -78.5,-145 -84.5,-145 -90.5,-139 -90.5,-133 -90.5,-133 -90.5,131 -90.5,131 -90.5,137 -84.5,143 -78.5,143"/>
<text text-anchor="middle" x="-16" y="-129.8" font-family="Times,serif" font-size="14.00">DockWorkersController</text>
<polyline fill="none" stroke="black" points="-90.5,-122 58.5,-122 "/>
<text text-anchor="start" x="-82.5" y="-106.8" font-family="Times,serif" font-size="14.00">archived</text>
<text text-anchor="start" x="-82.5" y="-91.8" font-family="Times,serif" font-size="14.00">avg_payroll</text>
<text text-anchor="start" x="-82.5" y="-76.8" font-family="Times,serif" font-size="14.00">create</text>
<text text-anchor="start" x="-82.5" y="-61.8" font-family="Times,serif" font-size="14.00">destroy</text>
<text text-anchor="start" x="-82.5" y="-46.8" font-family="Times,serif" font-size="14.00">edit</text>
<text text-anchor="start" x="-82.5" y="-31.8" font-family="Times,serif" font-size="14.00">index</text>
<text text-anchor="start" x="-82.5" y="-16.8" font-family="Times,serif" font-size="14.00">make_payment</text>
<text text-anchor="start" x="-82.5" y="-1.8" font-family="Times,serif" font-size="14.00">new</text>
<text text-anchor="start" x="-82.5" y="13.2" font-family="Times,serif" font-size="14.00">payment</text>
<text text-anchor="start" x="-82.5" y="28.2" font-family="Times,serif" font-size="14.00">report</text>
<text text-anchor="start" x="-82.5" y="43.2" font-family="Times,serif" font-size="14.00">show</text>
<text text-anchor="start" x="-82.5" y="58.2" font-family="Times,serif" font-size="14.00">update</text>
<polyline fill="none" stroke="black" points="-90.5,66 58.5,66 "/>
<polyline fill="none" stroke="black" points="-90.5,90 58.5,90 "/>
<text text-anchor="start" x="-82.5" y="105.2" font-family="Times,serif" font-size="14.00">_layout</text>
<text text-anchor="start" x="-82.5" y="120.2" font-family="Times,serif" font-size="14.00">dock_worker_params</text>
<text text-anchor="start" x="-82.5" y="135.2" font-family="Times,serif" font-size="14.00">set_dock_worker</text>
</g>
<!-- QrCodesController -->
<g id="node9" class="node"><title>QrCodesController</title>
<path fill="none" stroke="black" d="M-258,-270.5C-258,-270.5 -162,-270.5 -162,-270.5 -156,-270.5 -150,-276.5 -150,-282.5 -150,-282.5 -150,-381.5 -150,-381.5 -150,-387.5 -156,-393.5 -162,-393.5 -162,-393.5 -258,-393.5 -258,-393.5 -264,-393.5 -270,-387.5 -270,-381.5 -270,-381.5 -270,-282.5 -270,-282.5 -270,-276.5 -264,-270.5 -258,-270.5"/>
<text text-anchor="middle" x="-210" y="-378.3" font-family="Times,serif" font-size="14.00">QrCodesController</text>
<polyline fill="none" stroke="black" points="-270,-370.5 -150,-370.5 "/>
<text text-anchor="start" x="-262" y="-355.3" font-family="Times,serif" font-size="14.00">create</text>
<text text-anchor="start" x="-262" y="-340.3" font-family="Times,serif" font-size="14.00">new</text>
<text text-anchor="start" x="-262" y="-325.3" font-family="Times,serif" font-size="14.00">qr_code_params</text>
<polyline fill="none" stroke="black" points="-270,-317.5 -150,-317.5 "/>
<polyline fill="none" stroke="black" points="-270,-293.5 -150,-293.5 "/>
<text text-anchor="start" x="-262" y="-278.3" font-family="Times,serif" font-size="14.00">_layout</text>
</g>
<!-- WorkerSchedulesController -->
<g id="node10" class="node"><title>WorkerSchedulesController</title>
<path fill="none" stroke="black" d="M281.5,89.5C281.5,89.5 426.5,89.5 426.5,89.5 432.5,89.5 438.5,83.5 438.5,77.5 438.5,77.5 438.5,-21.5 438.5,-21.5 438.5,-27.5 432.5,-33.5 426.5,-33.5 426.5,-33.5 281.5,-33.5 281.5,-33.5 275.5,-33.5 269.5,-27.5 269.5,-21.5 269.5,-21.5 269.5,77.5 269.5,77.5 269.5,83.5 275.5,89.5 281.5,89.5"/>
<text text-anchor="middle" x="354" y="-18.3" font-family="Times,serif" font-size="14.00">WorkerSchedulesController</text>
<polyline fill="none" stroke="black" points="269.5,-10.5 438.5,-10.5 "/>
<text text-anchor="start" x="277.5" y="4.7" font-family="Times,serif" font-size="14.00">create</text>
<text text-anchor="start" x="277.5" y="19.7" font-family="Times,serif" font-size="14.00">demo</text>
<text text-anchor="start" x="277.5" y="34.7" font-family="Times,serif" font-size="14.00">destroy</text>
<polyline fill="none" stroke="black" points="269.5,42.5 438.5,42.5 "/>
<polyline fill="none" stroke="black" points="269.5,66.5 438.5,66.5 "/>
<text text-anchor="start" x="277.5" y="81.7" font-family="Times,serif" font-size="14.00">_layout</text>
</g>
</g>
</svg>
