<?xml version="1.0" encoding="UTF-8" standalone="no"?>
<!DOCTYPE svg PUBLIC "-//W3C//DTD SVG 1.1//EN"
 "http://www.w3.org/Graphics/SVG/1.1/DTD/svg11.dtd">
<!-- Generated by graphviz version 2.38.0 (20140413.2041)
 -->
<!-- Title: models_diagram Pages: 1 -->
<svg width="669pt" height="374pt"
 viewBox="0.00 0.00 668.65 374.00" xmlns="http://www.w3.org/2000/svg" xmlns:xlink="http://www.w3.org/1999/xlink">
<g id="graph0" class="graph" transform="scale(1 1) rotate(0) translate(4 370)">
<title>models_diagram</title>
<polygon fill="none" stroke="none" points="-4,4 -4,-370 664.645,-370 664.645,4 -4,4"/>
<!-- _diagram_info -->
<g id="node1" class="node"><title>_diagram_info</title>
<text text-anchor="start" x="8" y="-351.6" font-family="Times,serif" font-size="13.00">Models diagram</text>
<text text-anchor="start" x="8" y="-337.6" font-family="Times,serif" font-size="13.00">Date: Apr 13 2017 &#45; 17:56</text>
<text text-anchor="start" x="8" y="-323.6" font-family="Times,serif" font-size="13.00">Migration version: 20170413023926</text>
<text text-anchor="start" x="8" y="-309.6" font-family="Times,serif" font-size="13.00">Generated by RailRoady 1.5.2</text>
<text text-anchor="start" x="8" y="-295.6" font-family="Times,serif" font-size="13.00">http://railroady.prestonlee.com</text>
</g>
<!-- Vendor -->
<g id="node2" class="node"><title>Vendor</title>
<ellipse fill="none" stroke="black" cx="107" cy="-234" rx="37.0935" ry="18"/>
<text text-anchor="middle" x="107" y="-230.3" font-family="Times,serif" font-size="14.00">Vendor</text>
</g>
<!-- Appointment -->
<g id="node3" class="node"><title>Appointment</title>
<ellipse fill="none" stroke="black" cx="184" cy="-162" rx="57.6901" ry="18"/>
<text text-anchor="middle" x="184" y="-158.3" font-family="Times,serif" font-size="14.00">Appointment</text>
</g>
<!-- Vendor&#45;&gt;Appointment -->
<g id="edge1" class="edge"><title>Vendor&#45;&gt;Appointment</title>
<path fill="none" stroke="#9602c1" d="M129.9,-212.182C138.986,-203.922 149.468,-194.393 158.772,-185.935"/>
<ellipse fill="none" stroke="#9602c1" cx="126.668" cy="-215.12" rx="4.00002" ry="4.00002"/>
<polygon fill="#9602c1" stroke="#9602c1" points="158.854,-185.86 169.28,-182.463 162.553,-182.497 166.253,-179.134 166.253,-179.134 166.253,-179.134 162.553,-182.497 163.226,-175.804 158.854,-185.86 158.854,-185.86"/>
</g>
<!-- Shipment -->
<g id="node12" class="node"><title>Shipment</title>
<ellipse fill="none" stroke="black" cx="217" cy="-18" rx="44.6926" ry="18"/>
<text text-anchor="middle" x="217" y="-14.3" font-family="Times,serif" font-size="14.00">Shipment</text>
</g>
<!-- Appointment&#45;&gt;Shipment -->
<g id="edge2" class="edge"><title>Appointment&#45;&gt;Shipment</title>
<path fill="none" stroke="#6a68ab" d="M189.54,-135.735C193.484,-117.903 198.957,-93.4631 204,-72 205.981,-63.5697 208.205,-54.4026 210.245,-46.0997"/>
<ellipse fill="none" stroke="#6a68ab" cx="188.597" cy="-140.009" rx="4.00001" ry="4.00001"/>
<polygon fill="#6a68ab" stroke="#6a68ab" points="210.301,-45.8734 217.068,-37.2449 211.5,-41.0194 212.7,-36.1654 212.7,-36.1654 212.7,-36.1654 211.5,-41.0194 208.331,-35.0859 210.301,-45.8734 210.301,-45.8734"/>
</g>
<!-- DockWorker -->
<g id="node13" class="node"><title>DockWorker</title>
<ellipse fill="none" stroke="black" cx="270" cy="-90" rx="57.3905" ry="18"/>
<text text-anchor="middle" x="270" y="-86.3" font-family="Times,serif" font-size="14.00">DockWorker</text>
</g>
<!-- Appointment&#45;&gt;DockWorker -->
<g id="edge3" class="edge"><title>Appointment&#45;&gt;DockWorker</title>
<path fill="none" stroke="#6abe83" d="M211.824,-138.352C221.589,-130.404 232.551,-121.481 242.306,-113.542"/>
<polygon fill="#6abe83" stroke="#6abe83" points="211.702,-138.452 201.106,-141.275 207.824,-141.608 203.946,-144.765 203.946,-144.765 203.946,-144.765 207.824,-141.608 206.787,-148.255 211.702,-138.452 211.702,-138.452"/>
<polygon fill="#6abe83" stroke="#6abe83" points="242.406,-113.46 253.003,-110.637 246.284,-110.304 250.162,-107.147 250.162,-107.147 250.162,-107.147 246.284,-110.304 247.321,-103.657 242.406,-113.46 242.406,-113.46"/>
</g>
<!-- ApplicationRecord -->
<g id="node4" class="node"><title>ApplicationRecord</title>
<ellipse fill="none" stroke="black" cx="387" cy="-327" rx="77.1866" ry="18"/>
<text text-anchor="middle" x="387" y="-323.3" font-family="Times,serif" font-size="14.00">ApplicationRecord</text>
</g>
<!-- DockSchedule -->
<g id="node5" class="node"><title>DockSchedule</title>
<ellipse fill="none" stroke="black" cx="262" cy="-234" rx="61.99" ry="18"/>
<text text-anchor="middle" x="262" y="-230.3" font-family="Times,serif" font-size="14.00">DockSchedule</text>
</g>
<!-- State -->
<g id="node6" class="node"><title>State</title>
<ellipse fill="none" stroke="black" cx="327" cy="-162" rx="28.6953" ry="18"/>
<text text-anchor="middle" x="327" y="-158.3" font-family="Times,serif" font-size="14.00">State</text>
</g>
<!-- State&#45;&gt;DockWorker -->
<g id="edge4" class="edge"><title>State&#45;&gt;DockWorker</title>
<path fill="none" stroke="#892dc8" d="M309.202,-139.143C303.188,-131.757 296.431,-123.459 290.242,-115.859"/>
<ellipse fill="none" stroke="#892dc8" cx="311.824" cy="-142.363" rx="4.00002" ry="4.00002"/>
<polygon fill="#892dc8" stroke="#892dc8" points="290.126,-115.716 287.301,-105.12 286.969,-111.839 283.812,-107.962 283.812,-107.962 283.812,-107.962 286.969,-111.839 280.322,-110.803 290.126,-115.716 290.126,-115.716"/>
</g>
<!-- Dock -->
<g id="node7" class="node"><title>Dock</title>
<ellipse fill="none" stroke="black" cx="262" cy="-327" rx="29.795" ry="18"/>
<text text-anchor="middle" x="262" y="-323.3" font-family="Times,serif" font-size="14.00">Dock</text>
</g>
<!-- Dock&#45;&gt;Appointment -->
<g id="edge7" class="edge"><title>Dock&#45;&gt;Appointment</title>
<path fill="none" stroke="#3d9d26" d="M240.916,-305.476C221.057,-285.918 193.922,-258.515 191,-252 182.345,-232.703 180.928,-208.691 181.492,-190.474"/>
<ellipse fill="none" stroke="#3d9d26" cx="243.955" cy="-308.46" rx="4.00002" ry="4.00002"/>
<polygon fill="#3d9d26" stroke="#3d9d26" points="181.505,-190.222 186.526,-180.473 181.769,-185.229 182.032,-180.236 182.032,-180.236 182.032,-180.236 181.769,-185.229 177.538,-179.998 181.505,-190.222 181.505,-190.222"/>
</g>
<!-- Dock&#45;&gt;DockSchedule -->
<g id="edge5" class="edge"><title>Dock&#45;&gt;DockSchedule</title>
<path fill="none" stroke="#bcc499" d="M262,-300.729C262,-288.725 262,-274.362 262,-262.129"/>
<ellipse fill="none" stroke="#bcc499" cx="262" cy="-304.884" rx="4" ry="4"/>
<polygon fill="#bcc499" stroke="#bcc499" points="262,-262.04 266.5,-252.04 262,-257.04 262,-252.04 262,-252.04 262,-252.04 262,-257.04 257.5,-252.04 262,-262.04 262,-262.04"/>
</g>
<!-- Timeslot -->
<g id="node9" class="node"><title>Timeslot</title>
<ellipse fill="none" stroke="black" cx="384" cy="-234" rx="42.4939" ry="18"/>
<text text-anchor="middle" x="384" y="-230.3" font-family="Times,serif" font-size="14.00">Timeslot</text>
</g>
<!-- Dock&#45;&gt;Timeslot -->
<g id="edge6" class="edge"><title>Dock&#45;&gt;Timeslot</title>
<path fill="none" stroke="#396ef8" d="M283.32,-303.699C288.873,-298.325 294.99,-292.765 301,-288 316.567,-275.658 335.102,-263.601 350.703,-254.113"/>
<polygon fill="#396ef8" stroke="#396ef8" points="283.251,-303.768 272.987,-307.629 279.706,-307.294 276.16,-310.819 276.16,-310.819 276.16,-310.819 279.706,-307.294 279.333,-314.01 283.251,-303.768 283.251,-303.768"/>
<polygon fill="#396ef8" stroke="#396ef8" points="350.927,-253.979 361.818,-252.701 355.216,-251.41 359.506,-248.841 359.506,-248.841 359.506,-248.841 355.216,-251.41 357.193,-244.98 350.927,-253.979 350.927,-253.979"/>
</g>
<!-- User -->
<g id="node8" class="node"><title>User</title>
<ellipse fill="none" stroke="black" cx="510" cy="-327" rx="27.0966" ry="18"/>
<text text-anchor="middle" x="510" y="-323.3" font-family="Times,serif" font-size="14.00">User</text>
</g>
<!-- Timeslot&#45;&gt;Appointment -->
<g id="edge10" class="edge"><title>Timeslot&#45;&gt;Appointment</title>
<path fill="none" stroke="#6f0503" d="M344.467,-219.163C311.801,-207.731 265.354,-191.474 230.829,-179.39"/>
<ellipse fill="none" stroke="#6f0503" cx="348.534" cy="-220.587" rx="4.00001" ry="4.00001"/>
<polygon fill="#6f0503" stroke="#6f0503" points="230.417,-179.246 222.465,-171.695 225.697,-177.594 220.978,-175.942 220.978,-175.942 220.978,-175.942 225.697,-177.594 219.492,-180.19 230.417,-179.246 230.417,-179.246"/>
</g>
<!-- WorkerSchedule -->
<g id="node11" class="node"><title>WorkerSchedule</title>
<ellipse fill="none" stroke="black" cx="367" cy="-18" rx="70.3881" ry="18"/>
<text text-anchor="middle" x="367" y="-14.3" font-family="Times,serif" font-size="14.00">WorkerSchedule</text>
</g>
<!-- Timeslot&#45;&gt;WorkerSchedule -->
<g id="edge8" class="edge"><title>Timeslot&#45;&gt;WorkerSchedule</title>
<path fill="none" stroke="#f5a547" d="M381.988,-207.67C378.766,-167.116 372.477,-87.9488 369.163,-46.2266"/>
<ellipse fill="none" stroke="#f5a547" cx="382.321" cy="-211.862" rx="4" ry="4"/>
<polygon fill="#f5a547" stroke="#f5a547" points="369.161,-46.201 372.855,-35.8761 368.765,-41.2167 368.369,-36.2325 368.369,-36.2325 368.369,-36.2325 368.765,-41.2167 363.883,-36.5888 369.161,-46.201 369.161,-46.201"/>
</g>
<!-- Timeslot&#45;&gt;DockWorker -->
<g id="edge9" class="edge"><title>Timeslot&#45;&gt;DockWorker</title>
<path fill="none" stroke="#119537" d="M341.684,-218.671C322.864,-210.231 302.054,-197.675 289,-180 275.836,-162.175 271.393,-137.167 270.067,-118.198"/>
<polygon fill="#119537" stroke="#119537" points="341.791,-218.716 349.258,-226.747 346.398,-220.658 351.006,-222.601 351.006,-222.601 351.006,-222.601 346.398,-220.658 352.754,-218.454 341.791,-218.716 341.791,-218.716"/>
<polygon fill="#119537" stroke="#119537" points="270.062,-118.085 274.104,-107.892 269.835,-113.09 269.609,-108.096 269.609,-108.096 269.609,-108.096 269.835,-113.09 265.114,-108.299 270.062,-118.085 270.062,-118.085"/>
</g>
<!-- Reservation -->
<g id="node10" class="node"><title>Reservation</title>
<ellipse fill="none" stroke="black" cx="608" cy="-327" rx="52.7911" ry="18"/>
<text text-anchor="middle" x="608" y="-323.3" font-family="Times,serif" font-size="14.00">Reservation</text>
</g>
<!-- DockWorker&#45;&gt;WorkerSchedule -->
<g id="edge11" class="edge"><title>DockWorker&#45;&gt;WorkerSchedule</title>
<path fill="none" stroke="#17fa94" d="M298.503,-68.4307C310.28,-59.9322 323.963,-50.0576 335.99,-41.3786"/>
<ellipse fill="none" stroke="#17fa94" cx="295.254" cy="-70.7752" rx="4.00002" ry="4.00002"/>
<polygon fill="#17fa94" stroke="#17fa94" points="336.294,-41.1589 347.037,-38.9561 340.349,-38.2329 344.403,-35.307 344.403,-35.307 344.403,-35.307 340.349,-38.2329 341.77,-31.6579 336.294,-41.1589 336.294,-41.1589"/>
</g>
<!-- DockWorker&#45;&gt;Shipment -->
<g id="edge12" class="edge"><title>DockWorker&#45;&gt;Shipment</title>
<path fill="none" stroke="#98040e" d="M252.444,-65.8123C247.04,-58.6754 241.074,-50.7961 235.603,-43.5697"/>
<ellipse fill="none" stroke="#98040e" cx="255.025" cy="-69.2219" rx="4.00002" ry="4.00002"/>
<polygon fill="#98040e" stroke="#98040e" points="235.507,-43.4425 233.058,-32.7536 232.488,-39.4562 229.47,-35.4699 229.47,-35.4699 229.47,-35.4699 232.488,-39.4562 225.882,-38.1863 235.507,-43.4425 235.507,-43.4425"/>
</g>
</g>
</svg>
