<?xml version="1.0" encoding="UTF-8" standalone="no"?>
<!DOCTYPE svg PUBLIC "-//W3C//DTD SVG 1.1//EN"
 "http://www.w3.org/Graphics/SVG/1.1/DTD/svg11.dtd">
<!-- Generated by graphviz version 2.38.0 (20140413.2041)
 -->
<!-- Title: models_diagram Pages: 1 -->
<svg width="928pt" height="957pt"
 viewBox="0.00 0.00 927.50 957.00" xmlns="http://www.w3.org/2000/svg" xmlns:xlink="http://www.w3.org/1999/xlink">
<g id="graph0" class="graph" transform="scale(1 1) rotate(0) translate(4 953)">
<title>models_diagram</title>
<polygon fill="none" stroke="none" points="-4,4 -4,-953 923.5,-953 923.5,4 -4,4"/>
<!-- _diagram_info -->
<g id="node1" class="node"><title>_diagram_info</title>
<text text-anchor="start" x="8" y="-852.6" font-family="Times,serif" font-size="13.00">Models diagram</text>
<text text-anchor="start" x="8" y="-838.6" font-family="Times,serif" font-size="13.00">Date: Apr 13 2017 &#45; 17:56</text>
<text text-anchor="start" x="8" y="-824.6" font-family="Times,serif" font-size="13.00">Migration version: 20170413023926</text>
<text text-anchor="start" x="8" y="-810.6" font-family="Times,serif" font-size="13.00">Generated by RailRoady 1.5.2</text>
<text text-anchor="start" x="8" y="-796.6" font-family="Times,serif" font-size="13.00">http://railroady.prestonlee.com</text>
</g>
<!-- Vendor -->
<g id="node2" class="node"><title>Vendor</title>
<path fill="none" stroke="black" d="M56.5,-572C56.5,-572 163.5,-572 163.5,-572 169.5,-572 175.5,-578 175.5,-584 175.5,-584 175.5,-651 175.5,-651 175.5,-657 169.5,-663 163.5,-663 163.5,-663 56.5,-663 56.5,-663 50.5,-663 44.5,-657 44.5,-651 44.5,-651 44.5,-584 44.5,-584 44.5,-578 50.5,-572 56.5,-572"/>
<text text-anchor="middle" x="110" y="-647.8" font-family="Times,serif" font-size="14.00">Vendor</text>
<polyline fill="none" stroke="black" points="44.5,-640 175.5,-640 "/>
<text text-anchor="start" x="52.5" y="-624.8" font-family="Times,serif" font-size="14.00">id :INTEGER</text>
<text text-anchor="start" x="52.5" y="-609.8" font-family="Times,serif" font-size="14.00">name :varchar</text>
<text text-anchor="start" x="52.5" y="-594.8" font-family="Times,serif" font-size="14.00">created_at :datetime</text>
<text text-anchor="start" x="52.5" y="-579.8" font-family="Times,serif" font-size="14.00">updated_at :datetime</text>
</g>
<!-- Appointment -->
<g id="node3" class="node"><title>Appointment</title>
<path fill="none" stroke="black" d="M150.5,-376.5C150.5,-376.5 257.5,-376.5 257.5,-376.5 263.5,-376.5 269.5,-382.5 269.5,-388.5 269.5,-388.5 269.5,-515.5 269.5,-515.5 269.5,-521.5 263.5,-527.5 257.5,-527.5 257.5,-527.5 150.5,-527.5 150.5,-527.5 144.5,-527.5 138.5,-521.5 138.5,-515.5 138.5,-515.5 138.5,-388.5 138.5,-388.5 138.5,-382.5 144.5,-376.5 150.5,-376.5"/>
<text text-anchor="middle" x="204" y="-512.3" font-family="Times,serif" font-size="14.00">Appointment</text>
<polyline fill="none" stroke="black" points="138.5,-504.5 269.5,-504.5 "/>
<text text-anchor="start" x="146.5" y="-489.3" font-family="Times,serif" font-size="14.00">id :INTEGER</text>
<text text-anchor="start" x="146.5" y="-474.3" font-family="Times,serif" font-size="14.00">datetime :datetime</text>
<text text-anchor="start" x="146.5" y="-459.3" font-family="Times,serif" font-size="14.00">vendor_id :integer</text>
<text text-anchor="start" x="146.5" y="-444.3" font-family="Times,serif" font-size="14.00">created_at :datetime</text>
<text text-anchor="start" x="146.5" y="-429.3" font-family="Times,serif" font-size="14.00">updated_at :datetime</text>
<text text-anchor="start" x="146.5" y="-414.3" font-family="Times,serif" font-size="14.00">name :varchar</text>
<text text-anchor="start" x="146.5" y="-399.3" font-family="Times,serif" font-size="14.00">dock_id :integer</text>
<text text-anchor="start" x="146.5" y="-384.3" font-family="Times,serif" font-size="14.00">timeslot_id :integer</text>
</g>
<!-- Vendor&#45;&gt;Appointment -->
<g id="edge1" class="edge"><title>Vendor&#45;&gt;Appointment</title>
<path fill="none" stroke="#9791b0" d="M139.805,-564.659C144.964,-555.686 150.443,-546.155 155.942,-536.59"/>
<ellipse fill="none" stroke="#9791b0" cx="137.68" cy="-568.355" rx="4.00002" ry="4.00002"/>
<polygon fill="#9791b0" stroke="#9791b0" points="156.005,-536.481 164.89,-530.055 158.497,-532.147 160.989,-527.812 160.989,-527.812 160.989,-527.812 158.497,-532.147 157.088,-525.569 156.005,-536.481 156.005,-536.481"/>
</g>
<!-- Shipment -->
<g id="node12" class="node"><title>Shipment</title>
<path fill="none" stroke="black" d="M192,-0.5C192,-0.5 318,-0.5 318,-0.5 324,-0.5 330,-6.5 330,-12.5 330,-12.5 330,-94.5 330,-94.5 330,-100.5 324,-106.5 318,-106.5 318,-106.5 192,-106.5 192,-106.5 186,-106.5 180,-100.5 180,-94.5 180,-94.5 180,-12.5 180,-12.5 180,-6.5 186,-0.5 192,-0.5"/>
<text text-anchor="middle" x="255" y="-91.3" font-family="Times,serif" font-size="14.00">Shipment</text>
<polyline fill="none" stroke="black" points="180,-83.5 330,-83.5 "/>
<text text-anchor="start" x="188" y="-68.3" font-family="Times,serif" font-size="14.00">id :INTEGER</text>
<text text-anchor="start" x="188" y="-53.3" font-family="Times,serif" font-size="14.00">dock_worker_id :integer</text>
<text text-anchor="start" x="188" y="-38.3" font-family="Times,serif" font-size="14.00">appointment_id :integer</text>
<text text-anchor="start" x="188" y="-23.3" font-family="Times,serif" font-size="14.00">created_at :datetime</text>
<text text-anchor="start" x="188" y="-8.3" font-family="Times,serif" font-size="14.00">updated_at :datetime</text>
</g>
<!-- Appointment&#45;&gt;Shipment -->
<g id="edge2" class="edge"><title>Appointment&#45;&gt;Shipment</title>
<path fill="none" stroke="#5b4a65" d="M202.749,-368.209C203.333,-305.716 207.424,-218.183 223,-143 224.826,-134.188 227.347,-125.072 230.18,-116.189"/>
<ellipse fill="none" stroke="#5b4a65" cx="202.72" cy="-372.471" rx="4" ry="4"/>
<polygon fill="#5b4a65" stroke="#5b4a65" points="230.192,-116.154 237.627,-108.093 231.775,-111.411 233.358,-106.668 233.358,-106.668 233.358,-106.668 231.775,-111.411 229.09,-105.243 230.192,-116.154 230.192,-116.154"/>
</g>
<!-- DockWorker -->
<g id="node13" class="node"><title>DockWorker</title>
<path fill="none" stroke="black" d="M243.5,-143.5C243.5,-143.5 368.5,-143.5 368.5,-143.5 374.5,-143.5 380.5,-149.5 380.5,-155.5 380.5,-155.5 380.5,-327.5 380.5,-327.5 380.5,-333.5 374.5,-339.5 368.5,-339.5 368.5,-339.5 243.5,-339.5 243.5,-339.5 237.5,-339.5 231.5,-333.5 231.5,-327.5 231.5,-327.5 231.5,-155.5 231.5,-155.5 231.5,-149.5 237.5,-143.5 243.5,-143.5"/>
<text text-anchor="middle" x="306" y="-324.3" font-family="Times,serif" font-size="14.00">DockWorker</text>
<polyline fill="none" stroke="black" points="231.5,-316.5 380.5,-316.5 "/>
<text text-anchor="start" x="239.5" y="-301.3" font-family="Times,serif" font-size="14.00">id :INTEGER</text>
<text text-anchor="start" x="239.5" y="-286.3" font-family="Times,serif" font-size="14.00">last_name :varchar</text>
<text text-anchor="start" x="239.5" y="-271.3" font-family="Times,serif" font-size="14.00">first_name :varchar</text>
<text text-anchor="start" x="239.5" y="-256.3" font-family="Times,serif" font-size="14.00">address :varchar</text>
<text text-anchor="start" x="239.5" y="-241.3" font-family="Times,serif" font-size="14.00">state_id :integer</text>
<text text-anchor="start" x="239.5" y="-226.3" font-family="Times,serif" font-size="14.00">zipcode :varchar</text>
<text text-anchor="start" x="239.5" y="-211.3" font-family="Times,serif" font-size="14.00">pay_rate :float</text>
<text text-anchor="start" x="239.5" y="-196.3" font-family="Times,serif" font-size="14.00">archived :boolean</text>
<text text-anchor="start" x="239.5" y="-181.3" font-family="Times,serif" font-size="14.00">created_at :datetime</text>
<text text-anchor="start" x="239.5" y="-166.3" font-family="Times,serif" font-size="14.00">updated_at :datetime</text>
<text text-anchor="start" x="239.5" y="-151.3" font-family="Times,serif" font-size="14.00">last_payment_date :date</text>
</g>
<!-- Appointment&#45;&gt;DockWorker -->
<g id="edge3" class="edge"><title>Appointment&#45;&gt;DockWorker</title>
<path fill="none" stroke="#edfe3d" d="M244.955,-367.282C247.952,-361.157 250.997,-354.933 254.046,-348.699"/>
<polygon fill="#edfe3d" stroke="#edfe3d" points="244.931,-367.333 236.494,-374.338 242.733,-371.824 240.536,-376.316 240.536,-376.316 240.536,-376.316 242.733,-371.824 244.578,-378.293 244.931,-367.333 244.931,-367.333"/>
<polygon fill="#edfe3d" stroke="#edfe3d" points="254.118,-348.553 262.554,-341.548 256.315,-344.062 258.512,-339.571 258.512,-339.571 258.512,-339.571 256.315,-344.062 254.47,-337.593 254.118,-348.553 254.118,-348.553"/>
</g>
<!-- ApplicationRecord -->
<g id="node4" class="node"><title>ApplicationRecord</title>
<ellipse fill="none" stroke="black" cx="459" cy="-828" rx="77.1866" ry="18"/>
<text text-anchor="middle" x="459" y="-824.3" font-family="Times,serif" font-size="14.00">ApplicationRecord</text>
</g>
<!-- DockSchedule -->
<g id="node5" class="node"><title>DockSchedule</title>
<path fill="none" stroke="black" d="M244.5,-564.5C244.5,-564.5 351.5,-564.5 351.5,-564.5 357.5,-564.5 363.5,-570.5 363.5,-576.5 363.5,-576.5 363.5,-658.5 363.5,-658.5 363.5,-664.5 357.5,-670.5 351.5,-670.5 351.5,-670.5 244.5,-670.5 244.5,-670.5 238.5,-670.5 232.5,-664.5 232.5,-658.5 232.5,-658.5 232.5,-576.5 232.5,-576.5 232.5,-570.5 238.5,-564.5 244.5,-564.5"/>
<text text-anchor="middle" x="298" y="-655.3" font-family="Times,serif" font-size="14.00">DockSchedule</text>
<polyline fill="none" stroke="black" points="232.5,-647.5 363.5,-647.5 "/>
<text text-anchor="start" x="240.5" y="-632.3" font-family="Times,serif" font-size="14.00">id :INTEGER</text>
<text text-anchor="start" x="240.5" y="-617.3" font-family="Times,serif" font-size="14.00">dock_id :integer</text>
<text text-anchor="start" x="240.5" y="-602.3" font-family="Times,serif" font-size="14.00">timeslot_id :integer</text>
<text text-anchor="start" x="240.5" y="-587.3" font-family="Times,serif" font-size="14.00">created_at :datetime</text>
<text text-anchor="start" x="240.5" y="-572.3" font-family="Times,serif" font-size="14.00">updated_at :datetime</text>
</g>
<!-- State -->
<g id="node6" class="node"><title>State</title>
<path fill="none" stroke="black" d="M338.5,-406.5C338.5,-406.5 445.5,-406.5 445.5,-406.5 451.5,-406.5 457.5,-412.5 457.5,-418.5 457.5,-418.5 457.5,-485.5 457.5,-485.5 457.5,-491.5 451.5,-497.5 445.5,-497.5 445.5,-497.5 338.5,-497.5 338.5,-497.5 332.5,-497.5 326.5,-491.5 326.5,-485.5 326.5,-485.5 326.5,-418.5 326.5,-418.5 326.5,-412.5 332.5,-406.5 338.5,-406.5"/>
<text text-anchor="middle" x="392" y="-482.3" font-family="Times,serif" font-size="14.00">State</text>
<polyline fill="none" stroke="black" points="326.5,-474.5 457.5,-474.5 "/>
<text text-anchor="start" x="334.5" y="-459.3" font-family="Times,serif" font-size="14.00">id :INTEGER</text>
<text text-anchor="start" x="334.5" y="-444.3" font-family="Times,serif" font-size="14.00">name :varchar</text>
<text text-anchor="start" x="334.5" y="-429.3" font-family="Times,serif" font-size="14.00">created_at :datetime</text>
<text text-anchor="start" x="334.5" y="-414.3" font-family="Times,serif" font-size="14.00">updated_at :datetime</text>
</g>
<!-- State&#45;&gt;DockWorker -->
<g id="edge4" class="edge"><title>State&#45;&gt;DockWorker</title>
<path fill="none" stroke="#7eb284" d="M370.457,-398.771C364.221,-383.653 357.177,-366.573 350.092,-349.398"/>
<ellipse fill="none" stroke="#7eb284" cx="372.026" cy="-402.574" rx="4.00002" ry="4.00002"/>
<polygon fill="#7eb284" stroke="#7eb284" points="349.97,-349.102 350.317,-338.142 348.064,-344.48 346.157,-339.857 346.157,-339.857 346.157,-339.857 348.064,-344.48 341.997,-341.573 349.97,-349.102 349.97,-349.102"/>
</g>
<!-- Dock -->
<g id="node7" class="node"><title>Dock</title>
<path fill="none" stroke="black" d="M244.5,-782.5C244.5,-782.5 351.5,-782.5 351.5,-782.5 357.5,-782.5 363.5,-788.5 363.5,-794.5 363.5,-794.5 363.5,-861.5 363.5,-861.5 363.5,-867.5 357.5,-873.5 351.5,-873.5 351.5,-873.5 244.5,-873.5 244.5,-873.5 238.5,-873.5 232.5,-867.5 232.5,-861.5 232.5,-861.5 232.5,-794.5 232.5,-794.5 232.5,-788.5 238.5,-782.5 244.5,-782.5"/>
<text text-anchor="middle" x="298" y="-858.3" font-family="Times,serif" font-size="14.00">Dock</text>
<polyline fill="none" stroke="black" points="232.5,-850.5 363.5,-850.5 "/>
<text text-anchor="start" x="240.5" y="-835.3" font-family="Times,serif" font-size="14.00">id :INTEGER</text>
<text text-anchor="start" x="240.5" y="-820.3" font-family="Times,serif" font-size="14.00">name :varchar</text>
<text text-anchor="start" x="240.5" y="-805.3" font-family="Times,serif" font-size="14.00">created_at :datetime</text>
<text text-anchor="start" x="240.5" y="-790.3" font-family="Times,serif" font-size="14.00">updated_at :datetime</text>
</g>
<!-- Dock&#45;&gt;Appointment -->
<g id="edge7" class="edge"><title>Dock&#45;&gt;Appointment</title>
<path fill="none" stroke="#b8e4cd" d="M267.126,-774.982C251.153,-745.498 232.96,-707.336 223,-671 211.218,-628.019 206.245,-578.653 204.314,-537.779"/>
<ellipse fill="none" stroke="#b8e4cd" cx="269.209" cy="-778.778" rx="4.00002" ry="4.00002"/>
<polygon fill="#b8e4cd" stroke="#b8e4cd" points="204.305,-537.571 208.382,-527.391 204.095,-532.575 203.886,-527.58 203.886,-527.58 203.886,-527.58 204.095,-532.575 199.39,-527.768 204.305,-537.571 204.305,-537.571"/>
</g>
<!-- Dock&#45;&gt;DockSchedule -->
<g id="edge5" class="edge"><title>Dock&#45;&gt;DockSchedule</title>
<path fill="none" stroke="#1305db" d="M298,-773.977C298,-745.585 298,-710.447 298,-680.763"/>
<ellipse fill="none" stroke="#1305db" cx="298" cy="-778.272" rx="4" ry="4"/>
<polygon fill="#1305db" stroke="#1305db" points="298,-680.511 302.5,-670.51 298,-675.511 298,-670.511 298,-670.511 298,-670.511 298,-675.511 293.5,-670.511 298,-680.511 298,-680.511"/>
</g>
<!-- Timeslot -->
<g id="node9" class="node"><title>Timeslot</title>
<path fill="none" stroke="black" d="M393.5,-564.5C393.5,-564.5 500.5,-564.5 500.5,-564.5 506.5,-564.5 512.5,-570.5 512.5,-576.5 512.5,-576.5 512.5,-658.5 512.5,-658.5 512.5,-664.5 506.5,-670.5 500.5,-670.5 500.5,-670.5 393.5,-670.5 393.5,-670.5 387.5,-670.5 381.5,-664.5 381.5,-658.5 381.5,-658.5 381.5,-576.5 381.5,-576.5 381.5,-570.5 387.5,-564.5 393.5,-564.5"/>
<text text-anchor="middle" x="447" y="-655.3" font-family="Times,serif" font-size="14.00">Timeslot</text>
<polyline fill="none" stroke="black" points="381.5,-647.5 512.5,-647.5 "/>
<text text-anchor="start" x="389.5" y="-632.3" font-family="Times,serif" font-size="14.00">id :INTEGER</text>
<text text-anchor="start" x="389.5" y="-617.3" font-family="Times,serif" font-size="14.00">created_at :datetime</text>
<text text-anchor="start" x="389.5" y="-602.3" font-family="Times,serif" font-size="14.00">updated_at :datetime</text>
<text text-anchor="start" x="389.5" y="-587.3" font-family="Times,serif" font-size="14.00">date :date</text>
<text text-anchor="start" x="389.5" y="-572.3" font-family="Times,serif" font-size="14.00">time :time</text>
</g>
<!-- Dock&#45;&gt;Timeslot -->
<g id="edge6" class="edge"><title>Dock&#45;&gt;Timeslot</title>
<path fill="none" stroke="#7b3e79" d="M329.038,-773.866C341.994,-752.637 357.597,-728.237 373,-707 379.798,-697.627 387.3,-687.974 394.84,-678.646"/>
<polygon fill="#7b3e79" stroke="#7b3e79" points="329.023,-773.891 319.992,-780.111 326.432,-778.167 323.841,-782.443 323.841,-782.443 323.841,-782.443 326.432,-778.167 327.69,-784.775 329.023,-773.891 329.023,-773.891"/>
<polygon fill="#7b3e79" stroke="#7b3e79" points="394.842,-678.643 404.654,-673.746 398.006,-674.771 401.169,-670.899 401.169,-670.899 401.169,-670.899 398.006,-674.771 397.684,-668.052 394.842,-678.643 394.842,-678.643"/>
</g>
<!-- User -->
<g id="node8" class="node"><title>User</title>
<path fill="none" stroke="black" d="M566,-707.5C566,-707.5 742,-707.5 742,-707.5 748,-707.5 754,-713.5 754,-719.5 754,-719.5 754,-936.5 754,-936.5 754,-942.5 748,-948.5 742,-948.5 742,-948.5 566,-948.5 566,-948.5 560,-948.5 554,-942.5 554,-936.5 554,-936.5 554,-719.5 554,-719.5 554,-713.5 560,-707.5 566,-707.5"/>
<text text-anchor="middle" x="654" y="-933.3" font-family="Times,serif" font-size="14.00">User</text>
<polyline fill="none" stroke="black" points="554,-925.5 754,-925.5 "/>
<text text-anchor="start" x="562" y="-910.3" font-family="Times,serif" font-size="14.00">id :INTEGER</text>
<text text-anchor="start" x="562" y="-895.3" font-family="Times,serif" font-size="14.00">name :varchar</text>
<text text-anchor="start" x="562" y="-880.3" font-family="Times,serif" font-size="14.00">email :varchar</text>
<text text-anchor="start" x="562" y="-865.3" font-family="Times,serif" font-size="14.00">encrypted_password :varchar</text>
<text text-anchor="start" x="562" y="-850.3" font-family="Times,serif" font-size="14.00">reset_password_token :varchar</text>
<text text-anchor="start" x="562" y="-835.3" font-family="Times,serif" font-size="14.00">reset_password_sent_at :datetime</text>
<text text-anchor="start" x="562" y="-820.3" font-family="Times,serif" font-size="14.00">remember_created_at :datetime</text>
<text text-anchor="start" x="562" y="-805.3" font-family="Times,serif" font-size="14.00">sign_in_count :integer</text>
<text text-anchor="start" x="562" y="-790.3" font-family="Times,serif" font-size="14.00">current_sign_in_at :datetime</text>
<text text-anchor="start" x="562" y="-775.3" font-family="Times,serif" font-size="14.00">last_sign_in_at :datetime</text>
<text text-anchor="start" x="562" y="-760.3" font-family="Times,serif" font-size="14.00">current_sign_in_ip :varchar</text>
<text text-anchor="start" x="562" y="-745.3" font-family="Times,serif" font-size="14.00">last_sign_in_ip :varchar</text>
<text text-anchor="start" x="562" y="-730.3" font-family="Times,serif" font-size="14.00">created_at :datetime</text>
<text text-anchor="start" x="562" y="-715.3" font-family="Times,serif" font-size="14.00">updated_at :datetime</text>
</g>
<!-- Timeslot&#45;&gt;Appointment -->
<g id="edge10" class="edge"><title>Timeslot&#45;&gt;Appointment</title>
<path fill="none" stroke="#d48313" d="M374.297,-564.715C373.864,-564.475 373.432,-564.236 373,-564 335.569,-543.517 319.952,-550.981 284,-528 282.045,-526.75 280.095,-525.45 278.154,-524.106"/>
<ellipse fill="none" stroke="#d48313" cx="377.865" cy="-566.77" rx="4.00002" ry="4.00002"/>
<polygon fill="#d48313" stroke="#d48313" points="277.795,-523.845 272.359,-514.321 273.753,-520.902 269.71,-517.959 269.71,-517.959 269.71,-517.959 273.753,-520.902 267.062,-521.597 277.795,-523.845 277.795,-523.845"/>
</g>
<!-- WorkerSchedule -->
<g id="node11" class="node"><title>WorkerSchedule</title>
<path fill="none" stroke="black" d="M391,-0.5C391,-0.5 517,-0.5 517,-0.5 523,-0.5 529,-6.5 529,-12.5 529,-12.5 529,-94.5 529,-94.5 529,-100.5 523,-106.5 517,-106.5 517,-106.5 391,-106.5 391,-106.5 385,-106.5 379,-100.5 379,-94.5 379,-94.5 379,-12.5 379,-12.5 379,-6.5 385,-0.5 391,-0.5"/>
<text text-anchor="middle" x="454" y="-91.3" font-family="Times,serif" font-size="14.00">WorkerSchedule</text>
<polyline fill="none" stroke="black" points="379,-83.5 529,-83.5 "/>
<text text-anchor="start" x="387" y="-68.3" font-family="Times,serif" font-size="14.00">id :INTEGER</text>
<text text-anchor="start" x="387" y="-53.3" font-family="Times,serif" font-size="14.00">dock_worker_id :integer</text>
<text text-anchor="start" x="387" y="-38.3" font-family="Times,serif" font-size="14.00">timeslot_id :integer</text>
<text text-anchor="start" x="387" y="-23.3" font-family="Times,serif" font-size="14.00">created_at :datetime</text>
<text text-anchor="start" x="387" y="-8.3" font-family="Times,serif" font-size="14.00">updated_at :datetime</text>
</g>
<!-- Timeslot&#45;&gt;WorkerSchedule -->
<g id="edge8" class="edge"><title>Timeslot&#45;&gt;WorkerSchedule</title>
<path fill="none" stroke="#0ea4bb" d="M462.436,-556.524C464.331,-547.039 465.963,-537.295 467,-528 483.377,-381.233 470.381,-207.377 461.162,-116.657"/>
<ellipse fill="none" stroke="#0ea4bb" cx="461.606" cy="-560.499" rx="4.00001" ry="4.00001"/>
<polygon fill="#0ea4bb" stroke="#0ea4bb" points="461.145,-116.491 464.591,-106.081 460.63,-111.518 460.115,-106.545 460.115,-106.545 460.115,-106.545 460.63,-111.518 455.639,-107.008 461.145,-116.491 461.145,-116.491"/>
</g>
<!-- Timeslot&#45;&gt;DockWorker -->
<g id="edge9" class="edge"><title>Timeslot&#45;&gt;DockWorker</title>
<path fill="none" stroke="#f07a9b" d="M373.257,-564.174C373.171,-564.116 373.086,-564.058 373,-564 348.483,-547.435 331.676,-553.692 317,-528 286.538,-474.671 282.969,-406.143 287.405,-349.593"/>
<polygon fill="#f07a9b" stroke="#f07a9b" points="373.078,-564.052 378.807,-573.402 377.21,-566.868 381.341,-569.684 381.341,-569.684 381.341,-569.684 377.21,-566.868 383.876,-565.965 373.078,-564.052 373.078,-564.052"/>
<polygon fill="#f07a9b" stroke="#f07a9b" points="287.413,-349.504 292.769,-339.935 287.849,-344.523 288.286,-339.542 288.286,-339.542 288.286,-339.542 287.849,-344.523 283.804,-339.149 287.413,-349.504 287.413,-349.504"/>
</g>
<!-- Reservation -->
<g id="node10" class="node"><title>Reservation</title>
<path fill="none" stroke="black" d="M784.5,-775C784.5,-775 907.5,-775 907.5,-775 913.5,-775 919.5,-781 919.5,-787 919.5,-787 919.5,-869 919.5,-869 919.5,-875 913.5,-881 907.5,-881 907.5,-881 784.5,-881 784.5,-881 778.5,-881 772.5,-875 772.5,-869 772.5,-869 772.5,-787 772.5,-787 772.5,-781 778.5,-775 784.5,-775"/>
<text text-anchor="middle" x="846" y="-865.8" font-family="Times,serif" font-size="14.00">Reservation</text>
<polyline fill="none" stroke="black" points="772.5,-858 919.5,-858 "/>
<text text-anchor="start" x="780.5" y="-842.8" font-family="Times,serif" font-size="14.00">id :INTEGER</text>
<text text-anchor="start" x="780.5" y="-827.8" font-family="Times,serif" font-size="14.00">appointment_id :integer</text>
<text text-anchor="start" x="780.5" y="-812.8" font-family="Times,serif" font-size="14.00">dock_id :integer</text>
<text text-anchor="start" x="780.5" y="-797.8" font-family="Times,serif" font-size="14.00">created_at :datetime</text>
<text text-anchor="start" x="780.5" y="-782.8" font-family="Times,serif" font-size="14.00">updated_at :datetime</text>
</g>
<!-- DockWorker&#45;&gt;WorkerSchedule -->
<g id="edge11" class="edge"><title>DockWorker&#45;&gt;WorkerSchedule</title>
<path fill="none" stroke="#a403ed" d="M385.764,-140.256C392.656,-131.595 399.48,-123.018 405.997,-114.829"/>
<ellipse fill="none" stroke="#a403ed" cx="383.141" cy="-143.553" rx="4.00002" ry="4.00002"/>
<polygon fill="#a403ed" stroke="#a403ed" points="406.175,-114.604 415.923,-109.581 409.288,-110.692 412.401,-106.779 412.401,-106.779 412.401,-106.779 409.288,-110.692 408.88,-103.977 406.175,-114.604 406.175,-114.604"/>
</g>
<!-- DockWorker&#45;&gt;Shipment -->
<g id="edge12" class="edge"><title>DockWorker&#45;&gt;Shipment</title>
<path fill="none" stroke="#9043c8" d="M277.185,-135.41C275.439,-129.041 273.714,-122.749 272.043,-116.657"/>
<ellipse fill="none" stroke="#9043c8" cx="278.322" cy="-139.557" rx="4.00001" ry="4.00001"/>
<polygon fill="#9043c8" stroke="#9043c8" points="271.933,-116.257 273.629,-105.423 270.611,-111.435 269.289,-106.613 269.289,-106.613 269.289,-106.613 270.611,-111.435 264.949,-107.803 271.933,-116.257 271.933,-116.257"/>
</g>
</g>
</svg>
